<!--?xml version="1.0" encoding="utf-8"?-->
<!-- Generator: Adobe Illustrator 18.1.1, SVG Export Plug-In . SVG Version: 6.00 Build 0)  -->

<svg version="1.1" id="_x32_" xmlns="http://www.w3.org/2000/svg" xmlns:xlink="http://www.w3.org/1999/xlink" x="0px" y="0px" viewBox="0 0 512 512" style="width: 256px; height: 256px; opacity: 1;" xml:space="preserve">
<style type="text/css">
	.st0{fill:#4B4B4B;}
</style>
<g>
	<path class="st0" d="M414.094,53.067c-0.921-9.57-2.002-18.279-3.163-25.78c-1.182-7.514-2.422-13.76-3.844-18.752L404.651,0
		h-8.882H107.353l-2.44,8.535c-1.425,4.992-2.662,11.238-3.844,18.752c-3.496,22.457-6.21,56.058-6.219,90.098
		c0,10.197,0.247,20.421,0.798,30.391c2.118,37.612,14.472,71.159,25.763,101.036c5.662,14.942,11.078,28.976,14.998,42.003
		c3.931,13.033,6.316,25.006,6.307,35.803c0,50.024,0,123.566,0,123.566c-0.01,17.03,6.933,32.56,18.098,43.711
		c11.151,11.164,26.68,18.112,43.718,18.105h102.938c17.03,0.007,32.56-6.94,43.711-18.105
		c11.175-11.151,18.108-26.681,18.108-43.711c0,0,0-73.542,0-123.566c-0.013-10.798,2.369-22.77,6.307-35.803
		c5.859-19.56,15.156-41.315,23.491-65.106c8.322-23.798,15.696-49.731,17.264-77.932c0.546-9.97,0.8-20.194,0.8-30.391
		C417.15,94.703,415.936,72.18,414.094,53.067z M392.846,146.475c-1.822,33.147-13,64.325-24.272,93.996
		c-5.618,14.842-11.224,29.296-15.522,43.557c-4.288,14.262-7.298,28.383-7.304,42.59c0,50.024,0,123.566,0,123.566
		c-0.007,10.604-4.268,20.107-11.214,27.067c-6.964,6.941-16.457,11.205-27.064,11.212H204.531
		c-10.608-0.007-20.104-4.271-27.071-11.212c-6.947-6.96-11.201-16.463-11.208-27.067c0,0,0-73.542,0-123.566
		c-0.013-14.208-3.023-28.329-7.301-42.59c-6.453-21.382-15.836-43.237-23.814-66.086c-8.002-22.864-14.608-46.594-15.983-71.466
		c-0.523-9.47-0.764-19.273-0.764-29.09c0-21.842,1.182-43.711,2.95-62.076c0.881-9.169,1.906-17.464,2.99-24.384
		c0.418-2.676,0.845-5.152,1.272-7.381h260.798c0.421,2.229,0.854,4.705,1.268,7.381c3.263,20.808,5.953,53.728,5.939,86.461
		C393.607,127.202,393.373,137.006,392.846,146.475z" style="fill: rgb(217, 221, 227);"></path>
	<path class="st0" d="M201.391,136.338c1.004,31.586,7.584,61.863,13.954,91.146c6.049,27.842,11.755,54.309,12.82,81.483h-8.869
		c-1.645-27.174-10.501-53.635-19.86-81.483c-9.834-29.283-19.997-59.56-21.552-91.146c-0.464-9.45-0.661-19.019-0.654-28.448
		h-35.24c-0.194,12.246-0.023,24.865,0.664,37.271c1.758,31.592,13.25,61.863,24.361,91.146c11.716,30.858,22.776,60,22.776,90.312
		v123.566c0,8.128,6.607,14.735,14.739,14.735h102.938c8.128,0,14.738-6.607,14.738-14.735V326.618
		c0-30.311,11.064-59.454,22.773-90.312c11.115-29.283,22.599-59.554,24.355-91.146c0.694-12.406,0.854-25.025,0.674-37.271H201.011
		C201.007,117.332,201.091,126.876,201.391,136.338z M305.333,235.399c0,6.507-5.268,11.779-11.772,11.779
		s-11.769-5.272-11.769-11.779c0-6.493,5.265-11.772,11.769-11.772S305.333,228.906,305.333,235.399z M287.679,141.243
		c6.496,0,11.768,5.272,11.768,11.772c0,6.499-5.272,11.765-11.768,11.765c-6.5,0-11.772-5.266-11.772-11.765
		C275.907,146.515,281.179,141.243,287.679,141.243z M267.081,294.252c4.875,0,8.826,3.957,8.826,8.829
		c0,4.872-3.95,8.823-8.826,8.823c-4.878,0-8.829-3.951-8.829-8.823C258.253,298.209,262.203,294.252,267.081,294.252z
		 M267.081,397.243c4.875,0,8.826,3.951,8.826,8.822c0,4.879-3.95,8.829-8.826,8.829c-4.878,0-8.829-3.95-8.829-8.829
		C258.253,401.194,262.203,397.243,267.081,397.243z M231.772,367.814c0,4.878-3.954,8.829-8.832,8.829
		c-4.875,0-8.822-3.95-8.822-8.829c0-4.872,3.947-8.829,8.822-8.829C227.818,358.984,231.772,362.942,231.772,367.814z" style="fill: rgb(217, 221, 227);"></path>
</g>
</svg>
